<svg width="36" height="36" viewBox="0 0 36 36" fill="none" xmlns="http://www.w3.org/2000/svg">
<path d="M7 34.5C7 34.5 10.3 32.6667 18 32.6667C25.7 32.6667 29 34.5 29 34.5M12.5 27.1667V32.6667M23.5 27.1667V32.6667M10.3 27.1667H25.7C28.7803 27.1667 30.3204 27.1667 31.4969 26.5672C32.5318 26.0399 33.3732 25.1985 33.9005 24.1636C34.5 22.9871 34.5 21.447 34.5 18.3667V10.3C34.5 7.21971 34.5 5.67957 33.9005 4.50305C33.3732 3.46816 32.5318 2.62677 31.4969 2.09946C30.3204 1.5 28.7803 1.5 25.7 1.5H10.3C7.21971 1.5 5.67957 1.5 4.50305 2.09946C3.46816 2.62677 2.62677 3.46816 2.09946 4.50305C1.5 5.67957 1.5 7.21971 1.5 10.3V18.3667C1.5 21.447 1.5 22.9871 2.09946 24.1636C2.62677 25.1985 3.46816 26.0399 4.50305 26.5672C5.67957 27.1667 7.21971 27.1667 10.3 27.1667Z" stroke="#5027B5" stroke-width="3" stroke-linecap="round" stroke-linejoin="round"/>
</svg>
