<svg width="36" height="36" viewBox="0 0 36 36" fill="none" xmlns="http://www.w3.org/2000/svg">
<path d="M23.5 12.5H23.5183M23.5 23.5C29.5751 23.5 34.5 18.5751 34.5 12.5C34.5 6.42487 29.5751 1.5 23.5 1.5C17.4249 1.5 12.5 6.42487 12.5 12.5C12.5 13.0017 12.5336 13.4956 12.5987 13.9796C12.7057 14.7755 12.7592 15.1735 12.7231 15.4252C12.6856 15.6875 12.6379 15.8289 12.5086 16.0601C12.3845 16.2822 12.1658 16.5009 11.7284 16.9383L2.35915 26.3075C2.04208 26.6246 1.88354 26.7831 1.77016 26.9681C1.66964 27.1322 1.59557 27.311 1.55066 27.4981C1.5 27.7091 1.5 27.9333 1.5 28.3817V31.5667C1.5 32.5934 1.5 33.1068 1.69982 33.499C1.87559 33.8439 2.15605 34.1244 2.50102 34.3002C2.89319 34.5 3.40657 34.5 4.43333 34.5H7.61831C8.06672 34.5 8.29093 34.5 8.50193 34.4493C8.68899 34.4044 8.86782 34.3304 9.03186 34.2298C9.21687 34.1165 9.37541 33.9579 9.69249 33.6408L19.0617 24.2716C19.4991 23.8342 19.7178 23.6155 19.9399 23.4914C20.1711 23.3621 20.3125 23.3144 20.5748 23.2769C20.8265 23.2408 21.2245 23.2943 22.0204 23.4013C22.5044 23.4664 22.9983 23.5 23.5 23.5Z" stroke="#5027B5" stroke-width="3" stroke-linecap="round" stroke-linejoin="round"/>
</svg>
