<svg width="36" height="36" viewBox="0 0 36 36" fill="none" xmlns="http://www.w3.org/2000/svg">
<path d="M18 13.1891C16.5197 13.2353 14.3364 13.8505 14.3333 15.5936C14.3301 17.4504 16.1667 17.9998 18 17.9998C19.8333 17.9998 21.6667 18.4237 21.6667 20.4061C21.6667 21.8958 19.8451 22.5494 18 22.7655M18 13.1891C19.256 13.1808 20.75 13.1891 21.6667 13.4165M18 13.1891L18 10.6667M18 22.7655C16.5333 22.7655 16.1667 22.8123 14.3333 22.5832M18 22.7655V25.3333M10.3007 4.50085C11.627 4.39501 12.8862 3.87345 13.8989 3.01044C16.2621 0.996519 19.7379 0.996519 22.1011 3.01044C23.1138 3.87345 24.373 4.39501 25.6993 4.50085C28.7944 4.74784 31.2522 7.20561 31.4992 10.3007C31.605 11.627 32.1265 12.8862 32.9896 13.8989C35.0035 16.2621 35.0035 19.7379 32.9896 22.1011C32.1265 23.1138 31.605 24.373 31.4992 25.6993C31.2522 28.7944 28.7944 31.2522 25.6993 31.4992C24.373 31.605 23.1138 32.1265 22.1011 32.9896C19.7379 35.0035 16.2621 35.0035 13.8989 32.9896C12.8862 32.1265 11.627 31.605 10.3007 31.4992C7.20561 31.2522 4.74784 28.7944 4.50085 25.6993C4.39501 24.373 3.87345 23.1138 3.01044 22.1011C0.996519 19.7379 0.996519 16.2621 3.01044 13.8989C3.87345 12.8862 4.39501 11.627 4.50085 10.3007C4.74784 7.20561 7.20561 4.74784 10.3007 4.50085Z" stroke="#5027B5" stroke-width="3" stroke-linecap="round" stroke-linejoin="round"/>
</svg>
